<?xml version="1.0" encoding="UTF-8" standalone="no"?>
<!-- Generator: Adobe Illustrator 22.0.1, SVG Export Plug-In . SVG Version: 6.00 Build 0)  -->

<svg
   xmlns:dc="http://purl.org/dc/elements/1.1/"
   xmlns:cc="http://creativecommons.org/ns#"
   xmlns:rdf="http://www.w3.org/1999/02/22-rdf-syntax-ns#"
   xmlns:svg="http://www.w3.org/2000/svg"
   xmlns="http://www.w3.org/2000/svg"
   xmlns:sodipodi="http://sodipodi.sourceforge.net/DTD/sodipodi-0.dtd"
   xmlns:inkscape="http://www.inkscape.org/namespaces/inkscape"
   version="1.1"
   id="Layer_1"
   x="0px"
   y="0px"
   viewBox="0 0 700.00001 699.99999"
   xml:space="preserve"
   sodipodi:docname="cooler-master-logo.svg"
   width="700"
   height="700"
   inkscape:version="0.92.4 (5da689c313, 2019-01-14)"
   inkscape:export-filename="G:\Users\suitedoalex\sites\svg\cooler-master-logo-0.png"
   inkscape:export-xdpi="561.73999"
   inkscape:export-ydpi="561.73999"><metadata
   id="metadata10"><rdf:RDF><cc:Work
       rdf:about=""><dc:format>image/svg+xml</dc:format><dc:type
         rdf:resource="http://purl.org/dc/dcmitype/StillImage" /><dc:title></dc:title></cc:Work></rdf:RDF></metadata><defs
   id="defs8" /><sodipodi:namedview
   pagecolor="#ffffff"
   bordercolor="#666666"
   borderopacity="1"
   objecttolerance="10"
   gridtolerance="10"
   guidetolerance="10"
   inkscape:pageopacity="0"
   inkscape:pageshadow="2"
   inkscape:window-width="1600"
   inkscape:window-height="837"
   id="namedview6"
   showgrid="false"
   inkscape:zoom="0.51366257"
   inkscape:cx="18.319333"
   inkscape:cy="187.59406"
   inkscape:window-x="-8"
   inkscape:window-y="-8"
   inkscape:window-maximized="1"
   inkscape:current-layer="logo" />
<g
   id="logo"
   transform="matrix(3.0493394,0,0,3.0493394,27.232502,776.96251)">
	<path
   d="m 77.898335,22.1 v 0 m 142.799995,0 v 0 M 77.898335,37 v 0 m 142.799995,0 v 0 m -115.9,-14.3 h -5.099995 l -3.2,8.6 v 0 l -3.2,-8.6 h -5.3 v 2.5 h 1.2 v 9 h -1.2 v 2.5 h 5.4 v -2.5 h -1.2 v -5.7 0 l 3.2,8.3 h 2 l 2.999995,-8.3 v 0 5.7 h -1.199995 v 2.5 h 5.599995 v -2.5 h -1.2 v -9 h 1 v -2.5 z m 7.1,11.4 c -0.5,0.3 -1,0.5 -1.7,0.5 h -0.2 c -0.7,0 -1.2,-0.5 -1.2,-1.2 0,-1 0.7,-1.2 1.7,-1.2 h 1.4 z m -5.6,-4.3 2.7,-0.2 v -0.8 c 0.5,0 0.8,0 1.2,0 1.2,0 1.9,0.2 1.9,1.2 v 0.5 h -1.9 c -1.9,0 -4.4,0.7 -4.4,3.4 0,0.2 0,0.2 0,0.3 0,1.7 1.4,2.9 3,2.9 1.2,0 2.2,-0.3 3,-1.4 v 0 1 h 4.4 v -2.5 h -1.2 v -4.6 c 0,-2.9 -1.5,-3.4 -4.2,-3.4 -1.5,0 -3,0.2 -4.6,0.5 v 3.1 z m 10.6,-7.7 v 2.5 h 1.2 v 9.5 h -1.2 v 2.5 h 5.4 v -2.5 h -1.2 v -0.7 l 1.7,-1.4 1.4,2 h -0.7 v 2.5 h 5.4 V 34 h -0.8 l -2.7,-3.7 2,-1.5 h 1.2 v -2.5 h -5.4 v 2.5 h 0.8 l -2.9,2.2 v -9 h -4.2 z m 16.1,8.2 c 0,0 0,0 0,-0.2 0.2,-0.8 1,-1.7 2,-1.5 0.2,-0.2 0.5,0 0.7,0 0.7,0.2 1.2,1 0.8,1.7 h -3.5 m 0,2 h 6.6 c 0.5,-3.2 0.2,-6.1 -4.4,-6.1 -4.1,0 -5.6,2.2 -5.6,5.6 0,3.4 1.5,5.4 5.6,5.4 1.4,0 2.7,-0.2 4.1,-0.5 l -0.3,-2.5 c -1,0.2 -2.2,0.3 -3.2,0.3 h -0.2 c -1.4,0 -2.4,-0.9 -2.6,-2.2 z m 12.8,1.8 h -1.2 v 2.5 h 5.6 v -2.5 h -1.2 v -9 h 1.2 v -2.5 h -5.6 v 2.5 h 1.2 z m 6.1,-5.5 -0.2,5.1 c 0,2.2 0.8,3.2 3.4,3.2 0.8,0 1.7,0 2.4,-0.2 l -0.3,-2.4 c -0.2,0.2 -0.5,0.2 -0.8,0.2 -0.2,0 -0.2,0 -0.3,0 -0.7,0 -1,-0.5 -1,-1.2 v -4.7 h 2.5 v -2.2 h -2.6 v -2.9 h -2.7 l -0.3,2.9 -1.4,0.2 v 2 z m 20,5.5 h -1 v -1.7 l 3.9,-7.3 h 1 v -2.5 h -5.6 v 2.5 h 1.4 l -2,4.2 v 0 l -2.2,-4.2 h 1.4 v -2.5 h -6.3 v 2.5 h 1.4 l 3.7,7.3 v 1.7 h -1.2 v 2.5 h 5.6 v -2.5 z m 6.1,-2.5 c 0,-1.9 0.3,-2.9 1.9,-2.9 1.5,0 1.9,1 1.9,2.9 0,1.9 -0.3,2.9 -1.9,2.9 -1.6,0 -1.9,-1 -1.9,-2.9 m -3.4,0 c 0,3.2 1.4,5.4 5.2,5.4 3.9,0 5.2,-2 5.2,-5.4 0,-3.4 -1.4,-5.4 -5.2,-5.4 -3.9,0 -5.2,2 -5.2,5.4 m 11.1,-5.2 0.2,2.5 h 1.2 v 4.6 c 0,0.2 0,0.5 0,0.7 0.2,1.7 1.5,2.9 3.2,2.9 1.2,0 2.4,-0.5 3.2,-1.5 v 0 1.2 h 4.2 v -2.5 h -1.2 v -7.8 h -4.4 V 29 h 1.2 v 4.9 c -0.5,0.5 -1.2,0.7 -1.9,0.7 -0.2,0 -0.2,0 -0.3,0 -0.8,-0.2 -1.4,-0.8 -1.2,-1.7 v -6.4 h -4.2 z m 12.7,0 v 2.5 h 1.2 v 5.2 h -1.2 v 2.5 h 5.4 v -2.5 h -1.2 v -4.4 c 1.2,-0.5 2.4,-0.7 3.5,-0.7 v -2.9 c -1.4,0 -2.7,0.7 -3.5,1.9 v 0 -1.7 h -4.2 z m 14.9,3.4 2.4,0.2 v -3 c -1.5,-0.3 -3,-0.5 -4.6,-0.5 -2.5,0 -4.2,0.8 -4.2,3.2 0,2.5 2,3.4 4.6,3.7 0.8,0.2 1.5,0.2 1.5,0.7 0,0.3 -0.5,0.7 -1.5,0.7 -0.5,0 -1.2,0 -1.9,-0.2 v -1 h -2.6 v 2.9 c 1.7,0.3 3.2,0.5 4.9,0.5 2.5,0 4.2,-1 4.2,-3.4 0,-2.5 -2.7,-3 -4.6,-3.4 -1,-0.3 -1.4,-0.5 -1.4,-0.8 0,-0.3 0.3,-0.7 1.4,-0.7 0.5,0 1.2,0 1.7,0.2 v 0.9 z m 7.4,3.8 h -3.2 v 3.2 h 3.2 z M 41.498335,8.3 l 9.3,3 V 15 l -5.4,-1.5 v 3.4 l 4.6,0.8 v 3.7 l -4.6,-0.7 v 3.7 l 5.4,0.5 v 3.5 h -9.3 z m -19.4,28.4 c 0.2,3.2 6.9,3.5 7.9,9.6 0.8,5.1 -2.5,8.1 -6.3,7.3 -3.7,-0.8 -5.1,-4.7 -5.1,-8.3 l 3.9,1 c 0,2.4 0.8,3.2 2,3.4 h 0.2 c 0.8,-0.2 1.4,-0.8 1.2,-1.7 0,-5.7 -7.6,-4.6 -7.8,-11.5 0,-0.2 0,-0.2 0,-0.3 -0.1,-3.2 2.7,-6.1 5.9,-6.1 3.9,0 5.6,3.2 5.4,7.4 l -4.2,-0.3 c 0.3,-1 -0.3,-2 -1.4,-2.4 h -0.2 c -1,0 -1.7,1 -1.5,1.9 m 42.3,-14.7 v 15.9 c 0,5.4 -1.4,7.6 -5.9,9.6 -3.9,1.7 -4.2,1.9 -12.2,4.9 -5.1,2 -11.7,4.6 -17.6,4.6 -5.9,0 -12.5,-2.5 -17.6,-4.6 -7.9000001,-3 -8.3000001,-3.2 -12.2000001,-4.9 -4.6,-2 -5.9,-4.1 -5.9,-9.6 V 22 c 0,-7.1 3.2,-9.6 7.79999999,-11.5 C 2.4983349,9.8 3.1983349,9.5 11.298335,6.4 c 6.7,-2.5 12.8,-4.4 17.2,-4.4 4.4,0 10.5,1.9 17.3,4.4 8.1,2.9 8.8,3.4 10.5,4.1 4.6,2 7.8,4.4 7.8,11.5 z m 1.8,0.8 c -0.1,-7.8 -2,-10.8 -8.3,-13.8 -1.4,-0.7 -2.9,-1.5 -11.5,-4.6 -9.8,-3.6 -14.7,-4.4 -17.7,-4.4 -3,0 -7.9,0.8 -17.7,4.4 C 2.2983349,7.6 0.79833489,8.3 -0.50166511,9 -7.1016651,11.8 -9.0016651,15 -9.0016651,22.8 v 14.4 c 0,7.3 1,9.5 7.8,12.3 2.19999999,1 5.7,2.7 14.7000001,6.1 4.7,2 9.8,3.2 15,3.5 5.1,-0.3 10.3,-1.5 15,-3.5 9,-3.4 12.5,-5.1 14.9,-6.1 6.6,-3 7.8,-5.1 7.8,-12.3 V 22.8 M 2.4983349,30.3 h 4.1 v 17.2 l -3.2,-1 V 37 l -2.40000001,8.8 -1,-0.3 -1.89999999,-9.1 v 8.5 l -2.4,-0.9 V 30.4 h 3.39999999 l 1.4,7.1 z m 8.6000001,12.1 1,-6.6 1.2,7.1 z m 3.1,-12.1 -3.9,-0.2 -3.2000001,17.4 3.0000001,1 0.5,-2.7 3.4,1 0.5,3.2 3.7,1.4 z m 44.4,4.9 c 0.2,0.8 -0.5,1.7 -1.4,2.2 l -1.7,0.2 v -3.7 l 1.7,-0.2 c 0.2,0 0.2,0 0.3,0 0.8,-0.1 1.3,0.8 1.1,1.5 m 1,4 c 1.2,-1.2 1.9,-2.7 1.5,-4.2 0,-2.5 -1.2,-4.6 -3.5,-4.6 h -5.6 v 16.9 l 3.5,-1.2 v -5.4 l 1.2,-0.3 1.7,4.7 3,-1 -1.8,-4.9 m -18.1,11.5 V 30.3 h 9.3 v 3.9 l -5.4,0.3 v 3.4 l 4.7,-0.7 v 3.5 l -4.7,1 v 3.7 l 5.4,-1.4 v 3.5 z m -10.8,-15.4 v -5.1 h 9.6 v 4.4 l -2.7,0.2 V 52 l -4.1,1.4 V 35.2 Z m 27.9,-16.7 c 0,1 -0.5,1.7 -1.4,1.5 l -1.7,-0.3 v -3.7 l 1.7,0.5 c 0.9,0.1 1.6,1.1 1.4,2 m 1,4.4 c 0.8,-0.5 1.7,-1.5 1.5,-3.7 0.2,-2.5 -1.2,-4.7 -3.5,-5.7 l -5.6,-1.9 v 16.9 h 3.5 v -5.4 l 1.2,0.2 1.7,5.2 h 3 l -1.8,-5.6 m -24.6,0.8 5.4,0.3 v 4.4 h -9.6 v -24 l 4.2,1.4 z M 9.0983349,19.6 c -0.2,-3.5 0.7,-5.9 1.5000001,-6.3 1.2,-0.3 2.2,2 2.2,5.4 0.2,3.4 -0.7,5.9 -1.9,6.1 C 9.8983349,25 9.2983349,22.7 9.0983349,19.6 m -3.2,0.5 c 0.2,5.1 2,8.6 5.1000001,8.6 3.7,0 5.7,-3.9 5.6,-10.3 -0.2,-5.6 -2.7,-10 -6.1,-8.8 -3.3000001,1 -4.8000001,5.4 -4.6000001,10.5 m 15.2000001,-2 c 0,-4.1 0.7,-6.9 1.5,-7.6 1.4,-0.8 2.2,2 2.4,6.3 0.2,4.1 -0.5,7.3 -1.9,7.4 -1.2,0.1 -1.8,-2.6 -2,-6.1 m -3.7,0.3 c 0.3,6.1 2.4,10.3 5.6,10.3 3.7,0 6.3,-4.2 6.1,-12.5 0,-6.8 -2.9,-12.2 -6.8,-10.6 -3.7,1.3 -5.3,6.9 -4.9,12.8 m -22.0000001,3.7 c 0,3.9 1.9,6.6 5.09999999,6.8 C 3.3983349,28.6 5.5983349,26 5.3983349,23.2 c -0.5,0.2 -3,0.3 -3,0.3 -0.2,1.2 -0.8,2.2 -2.00000001,2.4 -1.39999999,0.2 -1.99999999,-1.4 -1.99999999,-3.9 -0.2,-2.5 0.3,-4.6 1.89999999,-4.9 0.2,0 0.2,0 0.3,0 0.80000001,0 1.50000001,0.7 1.50000001,1.5 l 3.2,-0.7 c -0.5,-2.9 -2.7,-4.9 -5.10000001,-4.4 -3.49999999,0.7 -4.99999999,4.6 -4.79999999,8.6"
   id="path2"
   inkscape:connector-curvature="0"
   inkscape:export-xdpi="54.823212"
   inkscape:export-ydpi="54.823212" />
<path
   style="stroke-width:2.11996841"
   d="m 133.19592,-185.06736 19.71571,6.3599 v 7.84389 l -11.44783,-3.17996 v 7.2079 l 9.75185,1.69597 v 7.84389 l -9.75185,-1.48398 v 7.84388 l 11.44783,1.05999 v 7.41989 h -19.71571 z m -41.127376,60.20711 c 0.424,6.7839 14.627776,7.41989 16.747746,20.35168 1.69597,10.811847 -5.29993,17.171753 -13.355806,15.475778 -7.843877,-1.695975 -10.81183,-9.963852 -10.81183,-17.595738 l 8.26788,2.11996 c 0,5.087929 1.69597,6.783904 4.23992,7.207901 h 0.424 c 1.69598,-0.423997 2.967956,-1.695975 2.543956,-3.603941 0,-12.08383 -16.111746,-9.75185 -16.535742,-24.37964 v -0.63599 c -0.211993,-6.7839 5.723914,-12.93181 12.507806,-12.93181 8.267876,0 11.871826,6.7839 11.447826,15.68777 l -8.903856,-0.63599 c 0.63599,-2.11997 -0.63599,-4.23994 -2.96796,-5.08793 h -0.42399 c -2.11997,0 -3.60395,2.11997 -3.17995,4.02795 m 89.674656,-31.16354 v 33.70749 c 0,11.44783 -2.96796,16.11176 -12.50781,20.3517 -8.26788,3.603945 -8.90387,4.027941 -25.86362,10.387845 -10.81184,4.239938 -24.80363,9.751855 -37.31144,9.751855 -12.507816,0 -26.499602,-5.299921 -37.311441,-9.751855 -16.747748,-6.359904 -17.595735,-6.7839 -25.863612,-10.387845 -9.751855,-4.23994 -12.507815,-8.69186 -12.507815,-20.3517 v -33.70749 c 0,-15.05178 6.783899,-20.3517 16.535755,-24.37964 3.603947,-1.48398 5.087924,-2.11997 22.259669,-8.69187 14.203789,-5.29992 27.135588,-9.32787 36.463444,-9.32787 9.32786,0 22.25967,4.02795 36.67545,9.32787 17.17176,6.14791 18.65573,7.20789 22.25967,8.69187 9.75186,4.23993 16.53575,9.32786 16.53575,24.37964 z m 3.81594,1.69597 c -0.21199,-16.53575 -4.23993,-22.89565 -17.59574,-29.25557 -2.96795,-1.48397 -6.1479,-3.17995 -24.37963,-9.75185 -20.7757,-7.63188 -31.16354,-9.32786 -37.52344,-9.32786 -6.359906,0 -16.747748,1.69598 -37.523434,9.32786 -18.443727,6.7839 -21.623679,8.26788 -24.379638,9.75185 -13.991792,5.93592 -18.019732,12.71982 -18.019732,29.25557 v 30.52755 c 0,15.47577 2.119968,20.1397 16.535754,26.075604 4.663931,2.119972 12.08382,5.723918 31.163534,12.93181 9.963858,4.239938 20.77569,6.783899 31.799516,7.419889 10.81184,-0.63599 21.83567,-3.179951 31.79953,-7.419889 19.07971,-7.207892 26.4996,-10.811838 31.58753,-12.93181 13.99179,-6.359904 16.53575,-10.811834 16.53575,-26.075604 v -30.52755 m -135.041976,15.89977 h 8.69187 v 36.46345 l -6.783899,-2.11997 v -20.13969 l -5.087924,18.65572 -2.119969,-0.636 -4.02794,-19.29171 v 18.01973 l -5.087924,-1.90796 v -28.83158 h 7.207892 l 2.967956,15.05178 z m 18.231725,25.65162 2.119972,-13.9918 2.543956,15.05178 z m 6.571907,-25.65162 -8.267882,-0.424 -6.783896,36.88745 6.359911,2.119974 1.059974,-5.723914 7.207897,2.11996 1.059986,6.7839 7.843886,2.967957 z m 94.126584,10.38784 c 0.424,1.69598 -1.05998,3.60394 -2.96795,4.66393 l -3.60396,0.424 v -7.84389 l 3.60396,-0.424 h 0.63599 c 1.69597,-0.21199 2.75596,1.69598 2.33196,3.17996 m 2.11997,8.47988 c 2.54396,-2.54397 4.02794,-5.72392 3.17995,-8.90388 0,-5.29991 -2.54396,-9.75185 -7.41989,-9.75185 h -11.87182 v 35.82747 l 7.41988,-2.54396 v -11.44783 l 2.54397,-0.636 3.60395,9.96386 6.3599,-2.11997 -3.81594,-10.38784 m -38.37143,24.379632 v -43.247352 h 19.71571 v 8.26787 l -11.44783,0.63599 v 7.20789 l 9.96385,-1.48397 v 7.41989 l -9.96385,2.11996 v 7.84389 l 11.44783,-2.96795 v 7.41988 z m -22.89566,-32.647522 v -10.81184 h 20.3517 v 9.32787 l -5.72391,0.42399 v 36.463458 l -8.69187,2.967955 v -38.583423 z m 59.14712,-35.40347 c 0,2.11997 -1.05998,3.60396 -2.96795,3.17996 l -3.60396,-0.63599 v -7.84389 l 3.60396,1.05999 c 1.90797,0.21199 3.39195,2.33196 2.96795,4.23993 m 2.11997,9.32787 c 1.69598,-1.05999 3.60395,-3.17996 3.17995,-7.84389 0.424,-5.29993 -2.54396,-9.96385 -7.41989,-12.08381 l -11.87182,-4.02794 v 35.82745 h 7.41988 v -11.44783 l 2.54397,0.424 3.60395,11.02383 h 6.3599 l -3.81594,-11.87181 m -52.15123,1.69597 11.44783,0.63599 v 9.32786 h -20.35169 v -50.87924 l 8.90386,2.96795 z m -54.907163,-8.90387 c -0.423997,-7.41989 1.483971,-12.50781 3.179946,-13.3558 2.543968,-0.63599 4.66394,4.23994 4.66394,11.44784 0.423985,7.20788 -1.483982,12.50781 -4.027939,12.93179 -2.119972,0.424 -3.39195,-4.45193 -3.815947,-11.02383 m -6.783901,1.05999 c 0.423994,10.81184 4.239937,18.23173 10.81184,18.23173 7.843886,0 12.083818,-8.26789 11.871826,-21.83569 -0.423997,-11.87181 -5.723915,-21.19968 -12.931812,-18.65571 -6.995895,2.11996 -10.175847,11.44783 -9.751854,22.25967 m 32.223515,-4.23994 c 0,-8.69187 1.483983,-14.62778 3.179953,-16.11176 2.96795,-1.69598 4.66392,4.23993 5.08792,13.35579 0.424,8.69188 -1.05999,15.47578 -4.02794,15.68778 -2.54396,0.21199 -3.815936,-5.51193 -4.239933,-12.93181 m -7.843874,0.63598 c 0.635989,12.93182 5.087925,21.83569 11.871817,21.83569 7.843866,0 13.355796,-8.90387 12.931796,-26.49961 0,-14.41579 -6.14791,-25.86361 -14.415766,-22.47166 -7.84389,2.75596 -11.235841,14.62777 -10.387847,27.13558 m -46.639309,7.84389 c 0,8.26788 4.027939,13.9918 10.811838,14.41578 6.147909,-0.63599 10.811839,-6.1479 10.387846,-12.08382 -1.059985,0.424 -6.359906,0.63599 -6.359906,0.63599 -0.423993,2.54397 -1.695975,4.66394 -4.239936,5.08793 -2.967956,0.424 -4.239938,-2.96795 -4.239938,-8.26787 -0.423993,-5.29992 0.635991,-9.75186 4.027941,-10.38784 h 0.63599 c 1.695975,0 3.179953,1.48397 3.179953,3.17994 l 6.783899,-1.48397 c -1.059985,-6.14791 -5.723915,-10.38785 -10.811839,-9.32787 -7.41989,1.48398 -10.599843,9.75186 -10.175848,18.23173"
   id="path2-8"
   inkscape:connector-curvature="0"
   sodipodi:nodetypes="cccccccccccccccccccccccscccsccsccsccssccscccccccsccsscccccscccccccccccccccccccccccccccccccccccccsccccccccccccccccccccccccccccccccccccccccccccccccccccccccccccscccccccccscccccccccascccc"
   inkscape:export-xdpi="78.991119"
   inkscape:export-ydpi="78.991119" /></g>
</svg>